HIERARCHY
ROOT Hips
{
  OFFSET 39.4792 99.9216 0.871624
  CHANNELS 6 Xposition Yposition Zposition Zrotation Xrotation Yrotation
  JOINT spine
  {
    OFFSET 0 8.81705 0.507024
    CHANNELS 3 Zrotation Xrotation Yrotation
    JOINT spine1
    {
      OFFSET 0 10.7766 0
      CHANNELS 3 Zrotation Xrotation Yrotation
      JOINT spine2
      {
        OFFSET 0 10.3259 0
        CHANNELS 3 Zrotation Xrotation Yrotation
        JOINT Neck
        {
          OFFSET 0 26.511 1.26395
          CHANNELS 3 Zrotation Xrotation Yrotation
          JOINT Head
          {
            OFFSET 0 8.00966 0
            CHANNELS 3 Zrotation Xrotation Yrotation
            End Site
            {
              OFFSET 0 19.3879 -6.39386
            }
          }
        }
        JOINT RightShoulder
        {
          OFFSET -4.34795 11.1512 -0.605422
          CHANNELS 3 Zrotation Xrotation Yrotation
          JOINT RightArm
          {
            OFFSET 0 14.6258 0
            CHANNELS 3 Zrotation Xrotation Yrotation
            JOINT RightArmRoll
            {
              OFFSET 0 7.3834 0
              CHANNELS 3 Zrotation Xrotation Yrotation
              JOINT RightForeArm
              {
                OFFSET 0 21.5052 0
                CHANNELS 3 Zrotation Xrotation Yrotation
                JOINT RightForeArmRoll
                {
                  OFFSET 0 8.28532 0
                  CHANNELS 3 Zrotation Xrotation Yrotation
                  JOINT RightHand
                  {
                    OFFSET 0 16.6268 0
                    CHANNELS 3 Zrotation Xrotation Yrotation
                    End Site
                    {
                      OFFSET 0 0 0
                    }
                  }
                }
              }
            }
          }
        }
        JOINT LeftShoulder
        {
          OFFSET 4.34795 11.1512 -0.605422
          CHANNELS 3 Zrotation Xrotation Yrotation
          JOINT LeftArm
          {
            OFFSET 0 14.6258 0
            CHANNELS 3 Zrotation Xrotation Yrotation
            JOINT LeftArmRoll
            {
              OFFSET 0 7.3834 0
              CHANNELS 3 Zrotation Xrotation Yrotation
              JOINT LeftForeArm
              {
                OFFSET 0 21.5052 0
                CHANNELS 3 Zrotation Xrotation Yrotation
                JOINT LeftForeArmRoll
                {
                  OFFSET 0 8.28532 0
                  CHANNELS 3 Zrotation Xrotation Yrotation
                  JOINT LeftHand
                  {
                    OFFSET 0 16.6268 0
                    CHANNELS 3 Zrotation Xrotation Yrotation
                    End Site
                    {
                      OFFSET 0 0 0
                    }
                  }
                }
              }
            }
          }
        }
      }
    }
  }
  JOINT RightUpLeg
  {
    OFFSET -7.8151 -1.43309 -1.20217
    CHANNELS 3 Zrotation Xrotation Yrotation
    JOINT RightUpLegRoll
    {
      OFFSET 0 19.4959 0
      CHANNELS 3 Zrotation Xrotation Yrotation
      JOINT RightLeg
      {
        OFFSET 0 -24.1427 0
        CHANNELS 3 Zrotation Xrotation Yrotation
        JOINT RightLegRoll
        {
          OFFSET 0 24.2217 0
          CHANNELS 3 Zrotation Xrotation Yrotation
          JOINT RightFoot
          {
            OFFSET 0 20.1605 0
            CHANNELS 3 Zrotation Xrotation Yrotation
            JOINT RightToeBase
            {
              OFFSET 0 16.8532 0
              CHANNELS 3 Zrotation Xrotation Yrotation
              End Site
              {
                OFFSET 0.00714343 8.16187 -0.94078
              }
            }
          }
        }
      }
    }
  }
  JOINT LeftUpLeg
  {
    OFFSET 7.8151 -1.43309 -1.20217
    CHANNELS 3 Zrotation Xrotation Yrotation
    JOINT LeftUpLegRoll
    {
      OFFSET 0 19.496 0
      CHANNELS 3 Zrotation Xrotation Yrotation
      JOINT LeftLeg
      {
        OFFSET 0 24.1426 0
        CHANNELS 3 Zrotation Xrotation Yrotation
        JOINT LeftLegRoll
        {
          OFFSET 0 24.4456 0
          CHANNELS 3 Zrotation Xrotation Yrotation
          JOINT LeftFoot
          {
            OFFSET 0 19.9366 0
            CHANNELS 3 Zrotation Xrotation Yrotation
            JOINT LeftToeBase
            {
              OFFSET 0 16.8532 0
              CHANNELS 3 Zrotation Xrotation Yrotation
              End Site
              {
                OFFSET -0.0320138 8.16187 -0.94078
              }
            }
          }
        }
      }
    }
  }
}
MOTION
Frames: 10
Frame Time: 0.00208333
45.183 96.2361 10.966 -1.17686 5.13062 7.11452 -0.508091 -2.49413 -0.135039 -1.0191 -0.984684 -0.226024 -1.01644 0.660244 -0.208987 -4.66746 -0.879711 -1.06976 3.93616 13.6672 -1.74058 3.08933 -17.2381 -18.4672 3.91125 23.9221 73.311 -1.90939e-006 1.78988e-007 9.68047e-006 -4.99473 7.89585 0.767247 -3.82681e-006 -8.36257e-007 -3.00163 8.02905 -4.95144 0.697702 -21.6687 -15.1929 12.3956 18.3817 21.7049 -80.1211 -3.64406e-006 -1.29827e-006 7.34065e-007 5.57889 8.60677 0.617409 1.87239e-006 -9.78929e-007 2.99999 -8.02888 -4.95144 -0.697669 153.956 12.4956 13.6725 180 7.01422e-015 178.473 179.267 25.3512 179.111 -1.25425e-006 -2.57727e-006 0.427132 -17.8094 67.1743 18.9569 8.17902 27.5906 -0.951282 -160.252 23.296 -9.50952 4.54188e-006 -4.6773e-006 -1.42342 -0.130134 -32.1152 0.50079 -1.70934e-007 -6.67411e-007 -1.16374 21.8969 71.2774 -22.762 -8.14941 25.4824 3.19037 
45.1316 96.6707 11.1862 -1.13503 5.0943 7.0867 -0.517945 -2.50562 -0.126066 -1.03849 -1.00775 -0.207352 -1.03605 0.637174 -0.189989 -4.75505 -1.01472 -1.04525 4.05321 13.9245 -1.73274 3.25197 -17.24 -18.435 4.32967 23.9496 72.9826 -1.90939e-006 1.78988e-007 9.68047e-006 -4.90257 7.85562 0.74581 -3.82681e-006 -8.36257e-007 -3.00162 8.02905 -4.95144 0.697702 -21.9373 -15.1598 12.3255 18.0472 21.9412 -79.6204 -3.64406e-006 -1.29827e-006 7.34065e-007 5.21113 8.55062 0.650589 1.87239e-006 -9.78929e-007 2.99999 -8.02888 -4.95144 -0.697669 154.102 12.1903 13.5182 180 7.01419e-015 178.464 179.259 24.6305 179.111 -1.25425e-006 -2.57728e-006 0.381655 -17.6522 66.9327 18.7655 8.18673 27.2839 -1.28947 -160.368 22.684 -9.44645 4.54188e-006 -4.6773e-006 -1.4438 -0.276642 -30.9593 0.497485 -1.70934e-007 -6.67413e-007 -1.04154 20.999 70.4185 -21.8049 -8.14788 25.4495 3.2297 
45.1432 97.0147 11.1576 -1.09725 5.05666 7.05748 -0.527074 -2.51622 -0.117095 -1.05642 -1.02902 -0.188751 -1.0542 0.6159 -0.171086 -4.83257 -1.16102 -1.0214 4.15831 14.1889 -1.72421 3.4222 -17.2472 -18.4095 4.74923 23.976 72.6507 -1.90939e-006 1.78988e-007 9.68047e-006 -4.80873 7.81273 0.723974 -3.82681e-006 -8.36257e-007 -3.00162 8.02905 -4.95144 0.697702 -22.2089 -15.1252 12.2544 17.6979 22.165 -79.0957 -3.64406e-006 -1.29827e-006 7.34065e-007 4.84003 8.49223 0.683765 1.87239e-006 -9.78929e-007 2.99999 -8.02888 -4.95144 -0.697669 154.255 11.8921 13.3602 180 7.01416e-015 178.456 179.253 23.9278 179.112 -1.25425e-006 -2.5773e-006 0.340403 -17.5087 66.7149 18.5928 8.1904 26.9699 -1.63296 -160.478 22.0754 -9.38526 4.54188e-006 -4.6773e-006 -1.46285 -0.41806 -29.8101 0.498216 -1.70934e-007 -6.67412e-007 -0.918279 20.1712 69.5649 -20.9334 -8.14627 25.416 3.26962 
45.1022 97.3616 11.1978 -1.06315 5.01845 7.02869 -0.535554 -2.52605 -0.108318 -1.07306 -1.04876 -0.170594 -1.07105 0.596153 -0.15265 -4.89884 -1.31635 -0.999025 4.25013 14.4582 -1.71554 3.60073 -17.2604 -18.3915 5.16715 24.0025 72.3199 -1.90939e-006 1.78988e-007 9.68047e-006 -4.71496 7.76601 0.702006 -3.82681e-006 -8.36257e-007 -3.00161 8.02905 -4.95144 0.697702 -22.4846 -15.0883 12.1812 17.3397 22.3748 -78.5573 -3.64406e-006 -1.29827e-006 7.34065e-007 4.471 8.43096 0.71649 1.87239e-006 -9.78929e-007 2.99999 -8.02888 -4.95144 -0.697669 154.413 11.6023 13.2002 180 7.01414e-015 178.448 179.248 23.2469 179.114 -1.25425e-006 -2.57732e-006 0.302853 -17.3774 66.5174 18.4364 8.18989 26.6564 -1.97321 -160.585 21.4755 -9.32329 4.54188e-006 -4.6773e-006 -1.4804 -0.553364 -28.6762 0.501471 -1.70934e-007 -6.67407e-007 -0.796329 19.4189 68.73 -20.1497 -8.14461 25.3828 3.30919 
45.0933 97.7361 11.2331 -1.03234 4.98044 7.00221 -0.543461 -2.53526 -0.0999262 -1.08856 -1.06724 -0.153255 -1.08675 0.577667 -0.13505 -4.95271 -1.47844 -0.978956 4.32735 14.7301 -1.70731 3.78824 -17.2802 -18.3815 5.58068 24.0307 71.9947 -1.90939e-006 1.78988e-007 9.68047e-006 -4.62304 7.71429 0.680175 -3.82681e-006 -8.36257e-007 -3.0016 8.02905 -4.95144 0.697702 -22.7654 -15.0483 12.1049 16.9786 22.5702 -78.0162 -3.64406e-006 -1.29827e-006 7.34065e-007 4.10947 8.36617 0.748317 1.87239e-006 -9.78929e-007 2.99999 -8.02888 -4.95144 -0.697669 154.576 11.3219 13.0401 180 7.01411e-015 178.441 179.245 22.5915 179.116 -1.25425e-006 -2.57734e-006 0.268482 -17.2571 66.3371 18.2941 8.18543 26.3514 -2.30185 -160.69 20.8895 -9.25786 4.54188e-006 -4.6773e-006 -1.49629 -0.681391 -27.5661 0.505812 -1.70934e-007 -6.674e-007 -0.678048 18.7458 67.9272 -19.4535 -8.14295 25.3506 3.3475 
45.113 98.069 11.2244 -1.00444 4.94338 6.97987 -0.550873 -2.54397 -0.0921107 -1.10309 -1.08473 -0.137105 -1.10146 0.560175 -0.118656 -4.99303 -1.64503 -0.962014 4.38867 15.0024 -1.70009 3.98541 -17.3073 -18.3804 5.98708 24.0622 71.6798 -1.90939e-006 1.78988e-007 9.68047e-006 -4.5347 7.65639 0.65875 -3.82681e-006 -8.36257e-007 -3.0016 8.02905 -4.95144 0.697702 -23.0526 -15.0043 12.0243 16.6206 22.7518 -77.4838 -3.64406e-006 -1.29827e-006 7.34065e-007 3.76085 8.29721 0.778797 1.87239e-006 -9.78929e-007 2.99999 -8.02888 -4.95144 -0.697669 154.742 11.0522 12.8817 180 7.01409e-015 178.435 179.241 21.9653 179.119 -1.25425e-006 -2.57736e-006 0.236765 -17.1468 66.1706 18.1639 8.17766 26.0627 -2.61067 -160.798 20.3226 -9.18631 4.54188e-006 -4.6773e-006 -1.51035 -0.800845 -26.4883 0.509855 -1.70934e-007 -6.67391e-007 -0.565798 18.1546 67.17 -18.844 -8.14134 25.3203 3.38362 
45.106 98.434 11.2617 -0.979075 4.90804 6.96353 -0.557865 -2.55232 -0.0850622 -1.1168 -1.10148 -0.12252 -1.11534 0.54341 -0.103841 -5.01865 -1.81385 -0.949023 4.4328 15.2726 -1.69448 4.19293 -17.3424 -18.3889 6.38368 24.0989 71.3798 -1.90939e-006 1.78988e-007 9.68047e-006 -4.45171 7.59115 0.638 -3.82681e-006 -8.36257e-007 -3.00159 8.02905 -4.95144 0.697702 -23.3471 -14.9554 11.9385 16.2721 22.9207 -76.9722 -3.64406e-006 -1.29827e-006 7.34065e-007 3.43054 8.22344 0.807483 1.87239e-006 -9.78929e-007 2.99999 -8.02888 -4.95144 -0.697669 154.909 10.7942 12.7266 180 7.01407e-015 178.429 179.236 21.3721 179.122 -1.25426e-006 -2.57738e-006 0.207179 -17.0457 66.0146 18.0441 8.16756 25.7985 -2.8916 -160.909 19.7801 -9.10597 4.54188e-006 -4.6773e-006 -1.52241 -0.910315 -25.4514 0.512269 -1.70934e-007 -6.67381e-007 -0.461941 17.6475 66.4717 -18.3199 -8.13983 25.2925 3.41662 
45.136 98.7677 11.3026 -0.955839 4.87518 6.95504 -0.564514 -2.56044 -0.078972 -1.12985 -1.11779 -0.109871 -1.12854 0.527105 -0.0909732 -5.02847 -1.98264 -0.940806 4.45844 15.5386 -1.69103 4.41147 -17.3861 -18.4078 6.76781 24.1428 71.0994 -1.90939e-006 1.78988e-007 9.68047e-006 -4.37583 7.51739 0.618195 -3.82681e-006 -8.36257e-007 -3.00159 8.02905 -4.95144 0.697702 -23.6501 -14.9008 11.8463 15.9391 23.0793 -76.4937 -3.64406e-006 -1.29827e-006 7.34065e-007 3.12398 8.14421 0.833929 1.87239e-006 -9.78929e-007 2.99999 -8.02888 -4.95144 -0.697669 155.077 10.5493 12.5766 180 7.01405e-015 178.424 179.229 20.8156 179.127 -1.25426e-006 -2.57739e-006 0.179201 -16.9531 65.8658 17.9331 8.15637 25.5667 -3.13669 -161.026 19.2672 -9.01415 4.54188e-006 -4.6773e-006 -1.53231 -1.00829 -24.4639 0.511757 -1.70934e-007 -6.6737e-007 -0.36884 17.227 65.846 -17.8797 -8.13848 25.2681 3.44558 
45.1274 99.1307 11.3358 -0.93434 4.84556 6.95625 -0.570897 -2.56847 -0.074031 -1.14242 -1.13389 -0.0995328 -1.14122 0.510993 -0.0804238 -5.02136 -2.14912 -0.938185 4.46434 15.7981 -1.69034 4.64167 -17.4392 -18.4376 7.13684 24.1962 70.8434 -1.90939e-006 1.78988e-007 9.68047e-006 -4.30881 7.43393 0.599602 -3.82681e-006 -8.36257e-007 -3.00158 8.02905 -4.95144 0.697702 -23.9626 -14.8396 11.7468 15.6279 23.2305 -76.0611 -3.64406e-006 -1.29827e-006 7.34065e-007 2.84656 8.05888 0.857687 1.87239e-006 -9.78929e-007 2.99999 -8.02888 -4.95144 -0.697669 155.244 10.3185 12.4334 180 7.01404e-015 178.42 179.218 20.2996 179.131 -1.25426e-006 -2.5774e-006 0.152307 -16.8686 65.7208 17.8293 8.14553 25.3754 -3.33803 -161.153 18.7889 -8.90816 4.54188e-006 -4.6773e-006 -1.53988 -1.09316 -23.5343 0.507049 -1.70935e-007 -6.6736e-007 -0.288855 16.8962 65.3062 -17.523 -8.13735 25.2479 3.46959 
45.1516 99.4455 11.3241 -0.914178 4.81995 6.969 -0.577091 -2.57655 -0.0704303 -1.15464 -1.15007 -0.0918773 -1.15354 0.494807 -0.0725633 -4.99623 -2.31104 -0.941984 4.44923 16.0487 -1.69298 4.88418 -17.5022 -18.4793 7.48814 24.2613 70.6165 -1.90939e-006 1.78988e-007 9.68047e-006 -4.25241 7.33962 0.582492 -3.82681e-006 -8.36257e-007 -3.00157 8.02905 -4.95144 0.697702 -24.2856 -14.7709 11.6389 15.3448 23.3775 -75.6872 -3.64406e-006 -1.29827e-006 7.34065e-007 2.60369 7.96681 0.878313 1.87239e-006 -9.78929e-007 2.99999 -8.02888 -4.95144 -0.697669 155.409 10.1031 12.2988 180 7.01403e-015 178.416 179.204 19.8278 179.137 -1.25426e-006 -2.5774e-006 0.125973 -16.7916 65.5763 17.7315 8.13649 25.2327 -3.48773 -161.29 18.3507 -8.78527 4.54188e-006 -4.6773e-006 -1.54495 -1.16328 -22.6713 0.49689 -1.70935e-007 -6.67351e-007 -0.22435 16.6588 64.8658 -17.25 -8.1365 25.2327 3.48773 
